# xmcd
#
# Track frame offsets:
#	150
#	17106
#	36058
#	55369
#	70863
#	88892
#	105846
#	119285
#	135263
#	152402
#	169072
#	193039
#	208621
#	229300
#	245092
#
# Disc length: 3503 seconds
#
# Revision: 1
# Processed by: cddbd v1.4PL0 Copyright (c) Steve Scherf et al.
# Submitted via: audiograbber 1.80
#
DISCID=c60dad0f
DTITLE=Various Artist - Hott Country 085
DYEAR=1900
DGENRE=
TTITLE0=Toby Keith - Rock You Baby
TTITLE1=Tebey - We Shook Hands
TTITLE2=Travis Tritt - Country Ain't Country
TTITLE3=John Michael Montgomery - Country Thang
TTITLE4=Kenny Chesney - Big Star
TTITLE5=Jessica Andrews - There's More To Me Than You
TTITLE6=Tammy Cochran - Love Won't Let Me
TTITLE7=Phil Vassar - This Is God
TTITLE8=Reggie Hamm - Babies
TTITLE9=Aaron Tippin Feat Thea Tippin - Love Like There's No Tomorrow
TTITLE10=Cross Canadian Ragweed - 17
TTITLE11=Tammy Cochran - What Kind Of Woman Would I Be
TTITLE12=Kathleen Edwards - Six O'Clock News
TTITLE13=David Wilcox - Rockin' The Boogie
TTITLE14=Steve Earle - Jerusalem
EXTD=
EXTT0=
EXTT1=
EXTT2=
EXTT3=
EXTT4=
EXTT5=
EXTT6=
EXTT7=
EXTT8=
EXTT9=
EXTT10=
EXTT11=
EXTT12=
EXTT13=
EXTT14=
PLAYORDER=
